# xmcd
#
# Track frame offsets:
#	150
#	17702
#	35965
#	55415
#	73877
#
# Disc length: 1241 seconds
#
# Revision: 1
# Processed by: cddbd v1.5.2PL0 Copyright (c) Steve Scherf et al.
# Submitted via: audiograbber 1.83.01
#
DISCID=4904d705
DTITLE=Max Music - Promo 30
DYEAR=1995
DGENRE=Dance
TTITLE0=Celvin Rotate - I Believe
TTITLE1=Nightcrawlers - Push the feeling On
TTITLE2=Guardian Angels - Tide is High
TTITLE3=Gillette - Mr. Personality
TTITLE4=Cutback Feat. Federal - Rock to the Rhythm
EXTD=
EXTT0=crg
EXTT1=
EXTT2=
EXTT3=
EXTT4=
PLAYORDER=
